<svg width="17.48" height="8.85" viewBox="0 0 4680 4640" fill="none" xmlns="http://www.w3.org/2000/svg"><path d="M1170 616C1294.121 616 1413.16 659.267 1500.92 736.281C1588.693 813.296 1638 917.751 1638 1026.667C1638 1135.583 1588.693 1240.037 1500.92 1317.052C1413.16 1394.067 1294.121 1437.333 1170 1437.333C1045.879 1437.333 926.841 1394.067 839.073 1317.052C751.307 1240.037 702 1135.583 702 1026.667C702 917.751 751.307 813.296 839.073 736.281C926.841 659.267 1045.879 616 1170 616ZM3510 0C3820.307 0 4117.893 108.166 4337.32 300.704C4556.733 493.241 4680 754.377 4680 1026.667C4680 1298.956 4556.733 1560.093 4337.32 1752.627C4117.893 1945.173 3820.307 2053.333 3510 2053.333H1170C859.697 2053.333 562.103 1945.173 342.685 1752.627C123.267 1560.093 0 1298.956 0 1026.667C0 754.377 123.267 493.241 342.685 300.704C562.103 108.166 859.697 0 1170 0H3510ZM1170 410.667C983.819 410.667 805.261 475.567 673.611 591.089C541.96 706.611 468 863.293 468 1026.667C468 1190.04 541.96 1346.72 673.611 1462.24C805.261 1577.773 983.819 1642.667 1170 1642.667H3510C3696.187 1642.667 3874.733 1577.773 4006.387 1462.24C4138.04 1346.72 4212 1190.04 4212 1026.667C4212 863.293 4138.04 706.611 4006.387 591.089C3874.733 475.567 3696.187 410.667 3510 410.667H1170Z" fill="white" stroke="currentColor" stroke-width="13.333333333333334"/><path d="M3510 2586.667H1170C859.697 2586.667 562.103 2694.827 342.685 2887.373C123.267 3079.907 0 3341.04 0 3613.333C0 3885.627 123.267 4146.76 342.685 4339.293C562.103 4531.84 859.697 4640 1170 4640H3510C3820.307 4640 4117.893 4531.84 4337.32 4339.293C4556.733 4146.76 4680 3885.627 4680 3613.333C4680 3341.04 4556.733 3079.907 4337.32 2887.373C4117.893 2694.827 3820.307 2586.667 3510 2586.667V2586.667ZM3510 4229.333C3323.813 4229.333 3145.267 4164.44 3013.613 4048.907C2881.96 3933.387 2808 3776.707 2808 3613.333C2808 3449.96 2881.96 3293.28 3013.613 3177.76C3145.267 3062.227 3323.813 2997.333 3510 2997.333C3696.187 2997.333 3874.733 3062.227 4006.387 3177.76C4138.04 3293.28 4212 3449.96 4212 3613.333C4212 3776.707 4138.04 3933.387 4006.387 4048.907C3874.733 4164.44 3696.187 4229.333 3510 4229.333Z" fill="white" stroke="currentColor" stroke-width="13.333333333333334"/></svg>